<?xml version="1.0" encoding="UTF-8" standalone="no" ?>
<!DOCTYPE svg PUBLIC "-//W3C//DTD SVG 1.1//EN" "http://www.w3.org/Graphics/SVG/1.1/DTD/svg11.dtd">
<svg xmlns="http://www.w3.org/2000/svg" xmlns:xlink="http://www.w3.org/1999/xlink" version="1.1" width="1080" height="1080" viewBox="0 0 1080 1080" xml:space="preserve">
<desc>Created with Fabric.js 5.2.4</desc>
<defs>
</defs>
<g transform="matrix(1 0 0 1 540 540)" id="aacaad50-feb6-41b1-9b2b-7de951a5b833"  >
<rect style="stroke: none; stroke-width: 1; stroke-dasharray: none; stroke-linecap: butt; stroke-dashoffset: 0; stroke-linejoin: miter; stroke-miterlimit: 4; fill: rgb(255,255,255); fill-rule: nonzero; opacity: 1; visibility: hidden;" vector-effect="non-scaling-stroke"  x="-540" y="-540" rx="0" ry="0" width="1080" height="1080" />
</g>
<g transform="matrix(1 0 0 1 540 540)" id="1bdf0a22-b7e5-45e8-ab5c-afa33be5be1a"  >
</g>
<g transform="matrix(1 0 0 1 540 540)"  >
<g style="" vector-effect="non-scaling-stroke"   >
		<g transform="matrix(1 0 0 1 0 -7.2)"  >
<linearGradient id="SVGID_paint0_linear_3_888_3" gradientUnits="userSpaceOnUse" gradientTransform="matrix(1 0 0 1 0 0)"  x1="17.8309" y1="0" x2="17.8309" y2="35.6618">
<stop offset="0%" style="stop-color:rgb(1,179,255);stop-opacity: 1"/>
<stop offset="100%" style="stop-color:rgb(107,217,151);stop-opacity: 1"/>
</linearGradient>
<path style="stroke: none; stroke-width: 1; stroke-dasharray: none; stroke-linecap: butt; stroke-dashoffset: 0; stroke-linejoin: miter; stroke-miterlimit: 4; fill: url(#SVGID_paint0_linear_3_888_3); fill-rule: nonzero; opacity: 1;" vector-effect="non-scaling-stroke"  transform=" translate(-17.83, -17.83)" d="M 15.9926 1.06131 C 17.1302 0.404568 18.5316 0.404567 19.6691 1.06131 L 31.4346 7.85414 C 32.5721 8.51087 33.2729 9.72458 33.2729 11.0381 L 33.2729 24.6237 C 33.2729 25.9372 32.5721 27.1509 31.4346 27.8076 L 19.6691 34.6005 C 18.5316 35.2572 17.1302 35.2572 15.9926 34.6005 L 4.22712 27.8076 C 3.08962 27.1509 2.38889 25.9372 2.38889 24.6237 L 2.38889 11.0381 C 2.38889 9.72458 3.08962 8.51087 4.22712 7.85414 L 15.9926 1.06131 Z" stroke-linecap="round" />
</g>
		<g transform="matrix(1 0 0 1 0 7.14)"  >
<linearGradient id="SVGID_paint1_linear_3_888_4" gradientUnits="userSpaceOnUse" gradientTransform="matrix(1 0 0 1 0 0)"  x1="17.8309" y1="14.3382" x2="17.8309" y2="50">
<stop offset="0%" style="stop-color:rgb(67,1,255);stop-opacity: 1"/>
<stop offset="100%" style="stop-color:rgb(217,107,206);stop-opacity: 1"/>
</linearGradient>
<path style="stroke: none; stroke-width: 1; stroke-dasharray: none; stroke-linecap: butt; stroke-dashoffset: 0; stroke-linejoin: miter; stroke-miterlimit: 4; fill: url(#SVGID_paint1_linear_3_888_4); fill-rule: nonzero; opacity: 1;" vector-effect="non-scaling-stroke"  transform=" translate(-17.83, -32.17)" d="M 16.1765 15.2934 C 17.2002 14.7024 18.4615 14.7024 19.4853 15.2934 L 31.6185 22.2985 C 32.6422 22.8896 33.2729 23.9819 33.2729 25.164 L 33.2729 39.1742 C 33.2729 40.3563 32.6422 41.4487 31.6185 42.0397 L 19.4853 49.0448 C 18.4615 49.6359 17.2002 49.6359 16.1765 49.0448 L 4.0433 42.0397 C 3.01954 41.4487 2.38889 40.3563 2.38889 39.1742 L 2.38889 25.164 C 2.38889 23.9819 3.01954 22.8896 4.0433 22.2985 L 16.1765 15.2934 Z" stroke-linecap="round" />
</g>
</g>
</g>
<g transform="matrix(1 0 0 1 540 539.44)" style="" id="39ae09dc-69b4-4b5b-af9a-e4467044e8a0"  >
		<text xml:space="preserve" font-family="Raleway" font-size="21" font-style="normal" font-weight="900" style="stroke: none; stroke-width: 1; stroke-dasharray: none; stroke-linecap: butt; stroke-dashoffset: 0; stroke-linejoin: miter; stroke-miterlimit: 4; fill: rgb(214,58,58); fill-rule: nonzero; opacity: 1; white-space: pre;" ><tspan x="-15.84" y="6.6" >K</tspan><tspan x="-2.09" y="6.6" >M</tspan></text>
</g>
</svg>